<svg width="20" height="20" viewBox="0 0 20 20" fill="none" xmlns="http://www.w3.org/2000/svg">
<g clip-path="url(#clip0_700_11799)">
<path d="M12.1681 8.26725C13.9677 8.26725 15.5163 6.6601 15.5163 4.5675C15.5163 2.49996 13.9593 0.96814 12.1681 0.96814C10.3851 0.96814 8.81984 2.53343 8.82819 4.58421C8.82819 6.6601 10.3768 8.26725 12.1681 8.26725ZM12.1681 9.76557C10.7367 9.76557 9.48948 10.1004 8.47666 10.6194C9.68202 11.6071 10.4521 13.1054 10.4521 14.7795C10.4521 15.1981 10.4019 15.625 10.3014 16.0184H17.4247C18.7389 16.0184 19.2078 15.6417 19.2078 14.9051C19.2078 12.7455 16.504 9.76557 12.1681 9.76557ZM5.04473 19.0318C7.35502 19.0318 9.29698 17.0982 9.29698 14.7795C9.29698 12.4441 7.38009 10.5273 5.04473 10.5273C2.71773 10.5273 0.79248 12.4441 0.79248 14.7795C0.79248 17.1149 2.71773 19.0318 5.04473 19.0318ZM5.05309 17.5418C4.76012 17.5418 4.50066 17.3409 4.50066 17.0228V15.2901H2.90187C2.61727 15.2901 2.38291 15.0557 2.38291 14.7795C2.38291 14.4949 2.61727 14.2606 2.90187 14.2606H4.50066V12.5279C4.50066 12.2098 4.76012 12.0172 5.05309 12.0172C5.33769 12.0172 5.59719 12.2098 5.59719 12.5279V14.2606H7.19595C7.48055 14.2606 7.70655 14.4949 7.70655 14.7795C7.70655 15.0557 7.48055 15.2901 7.19595 15.2901H5.59719V17.0228C5.59719 17.3409 5.33769 17.5418 5.05309 17.5418Z" fill="black"/>
</g>
<defs>
<clipPath id="clip0_700_11799">
<rect width="20" height="20" fill="white"/>
</clipPath>
</defs>
</svg>
