<svg width="229" height="235" viewBox="0 0 229 235" fill="none" xmlns="http://www.w3.org/2000/svg">
<path d="M3.53533 184.234L29.5682 153.209L34.9305 157.708L5.36231 192.947L3.53533 184.234Z" fill="white"/>
<path d="M67.8141 107.629L93.847 76.6045L99.2094 81.104L69.6411 116.342L67.8141 107.629Z" fill="white"/>
<path d="M35.6747 145.932L61.7076 114.907L67.0699 119.406L37.5017 154.644L35.6747 145.932Z" fill="white"/>
<path d="M99.9535 69.327L125.986 38.3022L131.349 42.8018L101.781 78.0398L99.9535 69.327Z" fill="white"/>
<path d="M132.093 31.0248L158.126 -7.03335e-06L163.488 4.49951L133.92 39.7376L132.093 31.0248Z" fill="white"/>
<rect x="9.19263" y="196.16" width="246" height="25" transform="rotate(-50 9.19263 196.16)" fill="white"/>
<path d="M46 8.00024C46 8.00024 67.0269 10.0002 80.5 10.0002C93.9731 10.0002 115 8.00024 115 8.00024V30.0002C115 30.0002 115 30.0002 107.475 31.0002C104.358 31.4145 100.556 35.0002 100.556 35.0002H80.5H60.8074C60.8074 35.0002 57.2473 31.3633 54.2513 31.0002C46 30.0002 46 30.0002 46 30.0002V8.00024Z" fill="white"/>
<path fill-rule="evenodd" clip-rule="evenodd" d="M60.7811 181.777V193.747C60.7811 206.168 58.1931 214.596 53.0172 219.031C48.1288 223.467 39.7897 225.685 28 225.685V235C32.8884 234.704 40.3648 234.409 50.4292 234.113C60.4936 233.522 69.9828 233.226 78.897 233.226C89.2489 233.226 99.3133 233.522 109.09 234.113C118.867 234.704 127.781 235 135.833 235C158.837 235 177.097 231.452 190.612 224.354C204.414 217.257 214.191 208.385 219.942 197.74C225.981 187.094 229 176.3 229 165.358C229 147.024 222.386 131.942 209.159 120.113C195.931 107.989 173.646 101.926 142.303 101.926H127.784L121.413 109.519C144.626 110.056 161.366 114.77 171.633 123.662C182.848 132.829 188.455 147.615 188.455 168.02C188.455 178.074 186.873 187.537 183.71 196.409C180.547 205.28 174.796 212.378 166.457 217.701C158.406 223.024 146.616 225.685 131.088 225.685C119.586 225.685 111.391 223.319 106.502 218.588C101.901 213.856 99.6009 205.576 99.6009 193.747V135.513L60.7811 181.777Z" fill="white"/>
<g clip-path="url(#clip0_410_752)">
<path fill-rule="evenodd" clip-rule="evenodd" d="M69.4022 98.0002L61.8503 107H61V98.0002H69.4022ZM79.4714 86.0002L71.9195 95.0002H61V86.0002H79.4714ZM89.5406 74.0002L81.9887 83.0002H76V74.0002H89.5406ZM99.6098 62.0002L92.0579 71.0002H88V62.0002H99.6098ZM61 14.0002H85V23.0002H61V14.0002ZM88 14.0002H100V23.0002H88V14.0002ZM73 26.0002H61V35.0002H73V26.0002ZM100 26.0002V35.0002H76V26.0002H100ZM85 47.0002V38.0002H61V47.0002H85ZM88 38.0002H100V47.0002H88V38.0002ZM73 50.0002H61V59.0002H73V50.0002ZM100 50.0002V59.0002H76V50.0002H100ZM85 71.0002V62.0002H61V71.0002H85ZM73 74.0002H61V83.0002H73V74.0002Z" fill="white"/>
</g>
<defs>
<clipPath id="clip0_410_752">
<rect width="39" height="88" fill="white" transform="translate(61 37.0002)"/>
</clipPath>
</defs>
</svg>
