<svg width="69" height="29" viewBox="0 0 69 29" fill="none" xmlns="http://www.w3.org/2000/svg">
<path d="M56.1941 13.2439L58.1881 10.8676L58.5989 11.2122L56.3341 13.9113L56.1941 13.2439Z" fill="white"/>
<path d="M53.7327 16.1777L55.7267 13.8014L56.1374 14.146L53.8726 16.8451L53.7327 16.1777Z" fill="white"/>
<path d="M58.656 10.3102L60.6501 7.93379L61.0608 8.27843L58.796 10.9775L58.656 10.3102Z" fill="white"/>
<path d="M61.118 7.37637L63.112 5L63.5227 5.34464L61.2579 8.04372L61.118 7.37637Z" fill="white"/>
<path d="M51.3056 19.4766L51.3056 19.1319L51.3067 19.0553L51.3737 18.9777L51.4981 18.8255L52.5142 17.63L54.0282 15.8257L57.0562 12.2172L63.112 5.00005L65.283 6.82169L53.1712 21.2559L52.0857 20.3451L51.543 19.8897L51.4073 19.7758L51.3395 19.7189L51.3056 19.6904L51.3056 19.6681L51.3056 19.4766Z" fill="white"/>
<path d="M54.5234 5.61278C54.5234 5.61278 56.134 5.76597 57.166 5.76597C58.198 5.76597 59.8085 5.61278 59.8085 5.61278V7.29788C59.8085 7.29788 59.8085 7.29788 59.2322 7.37448C58.9934 7.40621 58.7022 7.68086 58.7022 7.68086H57.166H55.6576C55.6576 7.68086 55.3849 7.40229 55.1555 7.37448C54.5234 7.29788 54.5234 7.29788 54.5234 7.29788V5.61278Z" fill="white"/>
<path fill-rule="evenodd" clip-rule="evenodd" d="M53.1548 22.2865C54.0524 22.2852 54.6877 22.1153 55.0607 21.7768C55.4572 21.4371 55.6554 20.7915 55.6554 19.8402V19.3064L58.6288 15.7628V19.8402C58.6288 20.7462 58.8051 21.3805 59.1575 21.7429C59.5319 22.1053 60.1596 22.2865 61.0406 22.2865C62.23 22.2865 63.133 22.0826 63.7497 21.6749C64.3885 21.2672 64.829 20.7236 65.0713 20.0441C65.3135 19.3645 65.4347 18.6397 65.4347 17.8696C65.4347 16.3067 65.0052 15.1741 64.1462 14.4719C63.4066 13.8315 62.2286 13.474 60.6119 13.3994L61.109 12.8071H61.8996C64.3004 12.8071 66.0073 13.2714 67.0205 14.2001C68.0337 15.1062 68.5403 16.2614 68.5403 17.6657C68.5403 18.5038 68.309 19.3305 67.8465 20.146C67.406 20.9614 66.6571 21.6409 65.5999 22.1846C64.5647 22.7282 63.1661 23 61.404 23C60.7873 23 60.1045 22.9773 59.3557 22.932C58.6068 22.8867 57.8359 22.8641 57.043 22.8641C56.3602 22.8641 55.6334 22.8867 54.8625 22.932C54.0916 22.9547 53.519 22.9773 53.1445 23V22.2987L53.1548 22.2865Z" fill="white"/>
<g clip-path="url(#clip0_517_675)">
<path fill-rule="evenodd" clip-rule="evenodd" d="M58.6596 9.33034L55.6732 12.8894H55.6724V12.8128V12.1234V11.8936V11.2043V10.9745V10.2851V10.0553V9.36598V9.13619V8.44683V8.21705V7.52769V7.52766H58.6596V7.52769H58.6597V8.21705H58.6596V8.44683H58.6598V9.13619H58.6596V9.33034ZM58.6597 5.68939H57.7405V6.37875H58.6597V5.68939ZM57.5108 5.6894H55.6725V6.37876H57.5108V5.6894ZM55.6724 6.60853H56.5915V7.29789H55.6724V6.60853ZM58.6598 6.60853H56.8215V7.29789H58.6598V6.60853Z" fill="white"/>
</g>
<path d="M2.52 23V6.2H4.92V20.912H14.016V23H2.52ZM18.954 13.448H27.594V15.488H18.954V13.448ZM19.17 20.912H28.962V23H16.77V6.2H28.626V8.288H19.17V20.912ZM32.8481 23V6.2H34.8161L45.9281 20H44.8961V6.2H47.2961V23H45.3281L34.2161 9.2H35.2481V23H32.8481Z" fill="white"/>
<defs>
<clipPath id="clip0_517_675">
<rect width="2.98723" height="6.28085" fill="white" transform="translate(55.6724 8.29361)"/>
</clipPath>
</defs>
</svg>
