<svg width="213" height="32" viewBox="0 0 213 32" fill="none" xmlns="http://www.w3.org/2000/svg">
<path d="M180.226 31L193.692 1.075H199.164L212.673 31H206.859L195.274 4.02475H197.497L185.954 31H180.226ZM186.424 24.0745L187.921 19.714H204.08L205.576 24.0745H186.424Z" fill="#FFFEFB"/>
<path d="M158.825 31V1.075H164.382V26.2975H180.029V31H158.825Z" fill="#FFFEFB"/>
<path d="M136.86 31.4275C134.523 31.4275 132.371 31.0427 130.404 30.2732C128.438 29.5037 126.728 28.435 125.274 27.067C123.821 25.6705 122.695 24.046 121.897 22.1935C121.099 20.3125 120.7 18.2605 120.7 16.0375C120.7 13.8145 121.099 11.7767 121.897 9.92425C122.695 8.04325 123.821 6.41875 125.274 5.05075C126.728 3.65425 128.438 2.57125 130.404 1.80175C132.371 1.03225 134.508 0.647499 136.817 0.647499C139.154 0.647499 141.291 1.03225 143.229 1.80175C145.196 2.57125 146.906 3.65425 148.359 5.05075C149.813 6.41875 150.939 8.04325 151.737 9.92425C152.535 11.7767 152.934 13.8145 152.934 16.0375C152.934 18.2605 152.535 20.3125 151.737 22.1935C150.939 24.0745 149.813 25.699 148.359 27.067C146.906 28.435 145.196 29.5037 143.229 30.2732C141.291 31.0427 139.168 31.4275 136.86 31.4275ZM136.817 26.554C138.327 26.554 139.724 26.2975 141.006 25.7845C142.289 25.2715 143.4 24.5448 144.341 23.6042C145.281 22.6353 146.008 21.5238 146.521 20.2698C147.063 18.9873 147.333 17.5765 147.333 16.0375C147.333 14.4985 147.063 13.102 146.521 11.848C146.008 10.5655 145.281 9.454 144.341 8.5135C143.4 7.5445 142.289 6.8035 141.006 6.2905C139.724 5.7775 138.327 5.521 136.817 5.521C135.306 5.521 133.91 5.7775 132.627 6.2905C131.373 6.8035 130.262 7.5445 129.293 8.5135C128.352 9.454 127.611 10.5655 127.07 11.848C126.557 13.102 126.3 14.4985 126.3 16.0375C126.3 17.548 126.557 18.9445 127.07 20.227C127.611 21.5095 128.352 22.6353 129.293 23.6042C130.233 24.5448 131.345 25.2715 132.627 25.7845C133.91 26.2975 135.306 26.554 136.817 26.554Z" fill="#FFFEFB"/>
<path d="M97.7383 23.9462L97.439 17.3627L113.128 1.075H119.37L106.331 14.926L103.253 18.3032L97.7383 23.9462ZM92.7793 31V1.075H98.3368V31H92.7793ZM113.641 31L102.184 17.3627L105.861 13.3015L120.139 31H113.641Z" fill="#FFFEFB"/>
<path d="M79.1277 31V1.075H84.6852V31H79.1277Z" fill="#FFFEFB"/>
<path d="M44.5186 31V1.075H49.0928L67.8601 24.1172H65.5943V1.075H71.1091V31H66.5348L47.7676 7.95775H50.0333V31H44.5186Z" fill="#FFFEFB"/>
<g clip-path="url(#clip0_10_20)">
<path d="M15 1H22.5V31H15V1Z" fill="#FFFEFB"/>
<path d="M0 1H7.5L22.5 31H15L0 1Z" fill="#FFFEFB"/>
<path d="M0 1H8.25V31H0V1Z" fill="#BCA37F"/>
<path d="M21.75 1H30V31H21.75V1Z" fill="#BCA37F"/>
</g>
<defs>
<clipPath id="clip0_10_20">
<rect y="1" width="30" height="30" rx="15" fill="white"/>
</clipPath>
</defs>
</svg>
