<svg width="20" height="20" viewBox="0 0 20 20" fill="none" xmlns="http://www.w3.org/2000/svg">
<path d="M8.75 17.5C8.75 17.5 7.5 17.5 7.5 16.25C7.5 15 8.75 11.25 13.75 11.25C18.75 11.25 20 15 20 16.25C20 17.5 18.75 17.5 18.75 17.5H8.75ZM13.75 10C14.7446 10 15.6984 9.60491 16.4017 8.90165C17.1049 8.19839 17.5 7.24456 17.5 6.25C17.5 5.25544 17.1049 4.30161 16.4017 3.59835C15.6984 2.89509 14.7446 2.5 13.75 2.5C12.7554 2.5 11.8016 2.89509 11.0983 3.59835C10.3951 4.30161 10 5.25544 10 6.25C10 7.24456 10.3951 8.19839 11.0983 8.90165C11.8016 9.60491 12.7554 10 13.75 10Z" fill="black"/>
<path d="M7.11943 12.0419C6.07206 13.2627 5.50167 14.7566 5.5 16.2435C5.4973 16.4133 5.50679 16.5826 5.52821 16.75H1.25902L1.24972 16.7495C1.23548 16.7485 1.21024 16.7461 1.17799 16.7407C1.10992 16.7294 1.03062 16.7081 0.96041 16.673C0.893133 16.6393 0.84867 16.6007 0.81935 16.5567C0.79316 16.5174 0.75 16.4313 0.75 16.25C0.75 15.8045 0.998183 14.7275 1.81944 13.7694C2.61001 12.8471 3.96201 12 6.25 12V12.0001L6.25872 12C6.54662 11.9966 6.83403 12.0107 7.11943 12.0419Z" stroke="black" stroke-width="1.5"/>
<path d="M7.30438 8.55438C6.85898 8.99978 6.25489 9.25 5.625 9.25C4.99511 9.25 4.39102 8.99978 3.94562 8.55438C3.50022 8.10898 3.25 7.50489 3.25 6.875C3.25 6.24511 3.50022 5.64102 3.94562 5.19562C4.39102 4.75022 4.99511 4.5 5.625 4.5C6.25489 4.5 6.85898 4.75022 7.30438 5.19562C7.74978 5.64102 8 6.24511 8 6.875C8 7.50489 7.74978 8.10898 7.30438 8.55438Z" stroke="black" stroke-width="1.5"/>
</svg>
