<svg width="22" height="22" viewBox="0 0 22 22" fill="none" xmlns="http://www.w3.org/2000/svg">
<path d="M1 5C1 4.44772 1.44772 4 2 4H3V9C3 9.55228 2.55228 10 2 10C1.44772 10 1 9.55228 1 9V5Z" fill="#031F21"/>
<path d="M1 5C1 4.44772 1.44772 4 2 4H6C6.55228 4 7 4.44772 7 5C7 5.55228 6.55228 6 6 6H1V5Z" fill="#031F21"/>
<path d="M20 1C20.5523 1 21 1.44772 21 2L21 3L16 3C15.4477 3 15 2.55228 15 2C15 1.44771 15.4477 1 16 1L20 1Z" fill="#031F21"/>
<path d="M20 1C20.5523 1 21 1.44772 21 2L21 6C21 6.55228 20.5523 7 20 7C19.4477 7 19 6.55228 19 6L19 1L20 1Z" fill="#031F21"/>
<path d="M1 20C1 20.5523 1.44772 21 2 21H3V16C3 15.4477 2.55228 15 2 15C1.44772 15 1 15.4477 1 16V20Z" fill="#031F21"/>
<path d="M1 20C1 20.5523 1.44772 21 2 21H6C6.55228 21 7 20.5523 7 20C7 19.4477 6.55228 19 6 19H1V20Z" fill="#031F21"/>
<path d="M17 21C17.5523 21 18 20.5523 18 20L18 19L13 19C12.4477 19 12 19.4477 12 20C12 20.5523 12.4477 21 13 21L17 21Z" fill="#031F21"/>
<path d="M17 21C17.5523 21 18 20.5523 18 20L18 16C18 15.4477 17.5523 15 17 15C16.4477 15 16 15.4477 16 16L16 21L17 21Z" fill="#031F21"/>
<rect x="18.4351" y="2" width="2" height="23" transform="rotate(45 18.4351 2)" fill="#031F21"/>
</svg>
