<svg width="229" height="235" viewBox="0 0 229 235" fill="none" xmlns="http://www.w3.org/2000/svg">
<path d="M67.8141 107.629L93.847 76.6045L99.2094 81.104L69.6411 116.342L67.8141 107.629Z" fill="black"/>
<path d="M35.6745 145.932L61.7074 114.907L67.0697 119.406L37.5015 154.644L35.6745 145.932Z" fill="black"/>
<path d="M99.9533 69.327L125.986 38.3022L131.349 42.8018L101.78 78.0398L99.9533 69.327Z" fill="black"/>
<path d="M132.093 31.0248L158.126 -7.03335e-06L163.488 4.49951L133.92 39.7376L132.093 31.0248Z" fill="black"/>
<path d="M3.98592 189L3.98579 184.5L4 183.5L4.87492 182.487L6.49987 180.5L19.7658 164.892L39.5315 141.336L79.0629 94.224L158.126 0.000550302L186.469 23.7831L28.343 212.23L14.1715 200.339L7.0858 194.393L5.31436 192.907L4.42865 192.164L3.98579 191.792L3.98579 191.5L3.98592 189Z" fill="black"/>
<path d="M46 8.00024C46 8.00024 67.0269 10.0002 80.5 10.0002C93.9731 10.0002 115 8.00024 115 8.00024V30.0002C115 30.0002 115 30.0002 107.475 31.0002C104.358 31.4145 100.556 35.0002 100.556 35.0002H80.5H60.8074C60.8074 35.0002 57.2473 31.3633 54.2513 31.0002C46 30.0002 46 30.0002 46 30.0002V8.00024Z" fill="black"/>
<path fill-rule="evenodd" clip-rule="evenodd" d="M28.1332 225.685C39.8525 225.668 48.1472 223.45 53.0172 219.031C58.1931 214.596 60.7811 206.168 60.7811 193.747V186.777L99.6009 140.513V193.747C99.6009 205.576 101.901 213.856 106.502 218.588C111.391 223.319 119.586 225.685 131.088 225.685C146.616 225.685 158.406 223.024 166.457 217.701C174.796 212.378 180.547 205.28 183.71 196.409C186.873 187.537 188.455 178.074 188.455 168.02C188.455 147.615 182.848 132.829 171.633 123.662C161.978 115.3 146.597 110.632 125.49 109.659L131.979 101.926H142.303C173.646 101.926 195.931 107.989 209.159 120.113C222.386 131.942 229 147.024 229 165.358C229 176.3 225.981 187.094 219.942 197.74C214.191 208.385 204.414 217.257 190.612 224.354C177.097 231.452 158.837 235 135.833 235C127.781 235 118.867 234.704 109.09 234.113C99.3133 233.522 89.2489 233.226 78.897 233.226C69.9828 233.226 60.4936 233.522 50.4292 234.113C40.3648 234.409 32.8884 234.704 28 235V225.844L28.1332 225.685Z" fill="black"/>
<g clip-path="url(#clip0_410_753)">
<path fill-rule="evenodd" clip-rule="evenodd" d="M100 56.535L61.0112 103H61V102V93.0002V90.0002V81.0002V78.0002V69.0002V66.0002V57.0002V54.0002V45.0002V42.0002V33.0002V33H100V33.0002V42.0002V45.0002V54.0002V56.535ZM85 9.00024H61V18.0002H85V9.00024ZM100 9.00024H88V18.0002H100V9.00024ZM61 21.0002H73V30.0002H61V21.0002ZM100 30.0002V21.0002H76V30.0002H100Z" fill="black"/>
</g>
<defs>
<clipPath id="clip0_410_753">
<rect width="39" height="82" fill="white" transform="translate(61 43)"/>
</clipPath>
</defs>
</svg>
